<?xml version="1.0" encoding="UTF-8" standalone="no"?>
<!DOCTYPE svg PUBLIC "-//W3C//DTD SVG 1.1//EN" "http://www.w3.org/Graphics/SVG/1.1/DTD/svg11.dtd">
<svg width="100%" height="100%" viewBox="0 0 384 270" version="1.1" xmlns="http://www.w3.org/2000/svg"
		 xml:space="preserve"
		 style="fill-rule:evenodd;clip-rule:evenodd;stroke-linejoin:round;stroke-miterlimit:2;">
	<g>
		<g>
			<path
								d="M367.719,237.434C358.688,241.949 348.891,244.887 338.887,246.359C338.27,222.078 318.418,202.496 294.004,202.496C287.785,202.496 282.754,207.527 282.754,213.746C282.754,219.965 287.785,224.996 294.004,224.996C306.418,224.996 316.504,235.094 316.504,247.496L249.004,247.496C249.004,235.094 259.09,224.996 271.504,224.996C277.723,224.996 282.754,219.965 282.754,213.746C282.754,207.527 277.723,202.496 271.504,202.496C246.699,202.496 226.504,222.68 226.504,247.496L192.758,247.496C186.539,247.496 181.508,252.527 181.508,258.746C181.508,264.965 186.539,269.996 192.758,269.996L325.094,269.996C344.695,269.996 362.43,265.234 377.781,257.559C383.34,254.777 385.582,248.023 382.812,242.465C380.023,236.906 373.277,234.688 367.719,237.434ZM384,168.75C384,112.953 338.551,67.504 282.754,67.504L249.004,67.504L226.504,146.25L271.504,191.246L384,168.75Z"
								style="fill:url(#_Linear1);"/>
					<path
							d="M271.504,67.504L271.504,11.254C271.504,4.953 266.555,0.004 260.254,0.004C253.953,0.004 249.004,4.953 249.004,11.254L249.004,67.504L271.504,67.504ZM249.004,146.25L249.004,67.504L237.754,67.504C210.531,67.504 187.809,86.852 182.633,112.5L40.738,112.5L21.387,73.801C18.465,68.18 11.715,65.926 6.312,68.629C0.688,71.551 -1.562,78.301 1.141,83.699L20.125,121.48L3.309,138.297C-1.086,142.691 -1.086,149.809 3.309,154.203C7.703,158.598 14.824,158.598 19.219,154.203L30.742,142.68L40.062,161.324C45.688,172.797 57.387,180 70.211,180L182.633,180C187.809,205.648 210.531,224.996 237.754,224.996L327.754,224.996C358.801,224.996 384,199.797 384,168.75L271.504,168.75C259.129,168.75 249.004,158.625 249.004,146.25Z"
							style="fill:url(#_Linear2);"/>
					<path id="rotor-blade" transform-origin="260 45"
								d="M147.758,45.004L372.75,45.004C379.051,45.004 384,40.055 384,33.754C384,27.453 379.051,22.504 372.75,22.504L147.758,22.504C141.457,22.504 136.508,27.453 136.508,33.754C136.508,40.055 141.457,45.004 147.758,45.004Z"
								style="fill:url(#_Linear3);"/>
		</g>
	</g>
	<defs>
		<linearGradient id="_Linear1" x1="0" y1="0" x2="1" y2="0" gradientUnits="userSpaceOnUse"
												gradientTransform="matrix(157,-176.996,176.996,157,192,269.996)"><stop offset="0" style="stop-color:rgb(166,255,221);stop-opacity:1"/>
					<stop offset="1" style="stop-color:rgb(217,255,229);stop-opacity:1"/></linearGradient>
		<linearGradient id="_Linear2" x1="0" y1="0" x2="1" y2="0" gradientUnits="userSpaceOnUse"
										gradientTransform="matrix(1.37768e-14,-224.992,224.992,1.37768e-14,192,224.996)"><stop offset="0" style="stop-color:rgb(0,181,156);stop-opacity:1"/>
			<stop offset="1" style="stop-color:rgb(156,255,172);stop-opacity:1"/></linearGradient>
		<linearGradient id="_Linear3" x1="0" y1="0" x2="1" y2="0" gradientUnits="userSpaceOnUse"
										gradientTransform="matrix(1.37768e-14,-224.992,224.992,1.37768e-14,192,224.996)"><stop offset="0" style="stop-color:rgb(0,181,156);stop-opacity:1"/>
			<stop offset="1" style="stop-color:rgb(156,255,172);stop-opacity:1"/></linearGradient>
		<style>
			#rotor-blade {
				animation: blade .5s ease-in-out infinite;
			}

			@keyframes blade {
				from {
					transform: scaleX(1);
				}

				50% {
					transform: scaleX(0);
				}
			}
		</style>
	</defs>
</svg>
